#!OML:ASF E:\acrobat2\Project_11_07_03\Capture day 1\Session 1\Acrobat.ASF
:FULLY-SPECIFIED
:DEGREES
561
root 11.0236 13.1445 -7.60204 225.387 0.622101 -180.743
lowerback 28.9494 -2.34129 -0.210167
upperback 14.1184 0.482489 -1.70073
thorax -0.0520985 1.56295 -1.87711
lowerneck 2.43969 -1.41338 -3.15184
upperneck -25.6366 -3.57582 1.71018
head -8.25202 -2.51906 1.5238
rclavicle -1.49089e-015 1.14301e-015
rhumerus 31.5486 8.74127 -78.3977
rradius 16.0701
rwrist 8.19316
rhand -12.3825 318.748
rfingers 7.12502
rthumb 13.6884 -430.782
lclavicle -1.49089e-015 1.14301e-015
lhumerus 40.1772 -25.3353 66.686
lradius 13.0326
lwrist 2.31592
lhand -19.4334 -18.0728
lfingers 7.12502
lthumb 6.8868 11.7952
rfemur -39.9513 31.088 -72.6133
rtibia -6.16962
rfoot -91.2224 -5.56214
rtoes 47.0953
lfemur -30.4191 7.45073 44.1729
ltibia -14.3054
lfoot -48.2976 -0.856666
ltoes 54.1763
562
root 11.0172 13.1646 -7.65001 225.281 0.587091 -180.848
lowerback 28.0155 -1.98796 -0.950694
upperback 14.1845 0.728496 -1.04009
thorax 0.446391 1.59781 -0.77459
lowerneck 1.97251 -1.44122 -3.36212
upperneck -25.4479 -3.84291 0.981287
head -8.11453 -2.58553 1.32522
rclavicle -5.66536e-015 -5.3206e-015
rhumerus 31.9695 9.59989 -76.5751
rradius 16.3782
rwrist 7.33054
rhand -12.1245 318.551
rfingers 7.12502
rthumb 13.9371 -430.962
lclavicle -5.66536e-015 -5.3206e-015
lhumerus 39.5153 -24.3971 68.6955
lradius 13.3415
lwrist 1.36415
lhand -18.9693 -18.1534
lfingers 7.12502
lthumb 7.3348 11.6995
rfemur -39.5744 30.9377 -72.0725
rtibia -6.15276
rfoot -90.6408 -5.86918
rtoes 46.8652
lfemur -30.4867 6.70676 44.1827
ltibia -14.1499
lfoot -48.6863 -1.16719
ltoes 54.1834
563
root 11.0048 13.1808 -7.69265 225.297 0.499779 -181.013
lowerback 27.2283 -2.02561 -0.710338
upperback 13.9424 0.605555 -1.16295
thorax 0.524798 1.51693 -1.00368
lowerneck 1.85089 -1.4406 -3.08322
upperneck -25.2783 -3.8618 0.753298
head -8.04441 -2.59629 1.19651
rclavicle 1.59028e-015 -1.32316e-015
rhumerus 32.001 9.56263 -76.5043
rradius 16.3885
rwrist 7.42165
rhand -11.6066 318.689
rfingers 7.12502
rthumb 14.4361 -430.789
lclavicle 1.59028e-015 -1.32316e-015
lhumerus 38.9592 -24.3956 69.0295
lradius 13.5804
lwrist 1.33397
lhand -18.2202 -17.7782
lfingers 7.12502
lthumb 8.05784 12.0482
rfemur -39.2007 30.924 -71.8235
rtibia -6.21567
rfoot -90.5223 -6.31663
rtoes 46.2871
lfemur -30.7626 6.03952 44.1874
ltibia -13.927
lfoot -49.0971 -1.70064
ltoes 54.2703
564
root 11.0547 13.1791 -7.72904 225.734 0.619845 -180.666
lowerback 25.7357 -1.50751 -1.21674
upperback 13.6721 0.97737 -0.973378
thorax 0.911017 1.5997 -0.576131
lowerneck 1.94971 -1.46436 -3.19777
upperneck -25.309 -3.88646 0.888613
head -8.06692 -2.60748 1.26509
rclavicle -1.59028e-015 -3.41661e-015
rhumerus 32.073 9.87496 -75.8875
rradius 16.4619
rwrist 6.85226
rhand -11.1972 318.662
rfingers 7.12502
rthumb 14.8305 -430.787
lclavicle -1.59028e-015 -3.41661e-015
lhumerus 38.6234 -24.779 69.1007
lradius 13.6285
lwrist 1.61275
lhand -17.8511 -17.6778
lfingers 7.12502
lthumb 8.41402 12.1346
rfemur -40.0632 31.1538 -72.4093
rtibia -6.05999
rfoot -91.359 -6.37285
rtoes 45.8749
lfemur -30.3134 6.49992 44.6897
ltibia -14.1146
lfoot -49.2282 -2.11568
ltoes 54.3444
565
root 11.0388 13.2085 -7.77374 225.384 0.511907 -180.793
lowerback 25.4191 -1.55089 -0.909275
upperback 13.4739 0.912472 -1.07518
thorax 0.833915 1.56893 -0.843925
lowerneck 1.81793 -1.47717 -3.4891
upperneck -25.1168 -3.81557 1.33118
head -7.96306 -2.57903 1.44728
rclavicle -3.18055e-015 3.2054e-015
rhumerus 32.1649 10.205 -75.243
rradius 16.577
rwrist 6.13172
rhand -11.1273 318.547
rfingers 7.12502
rthumb 14.8979 -430.897
lclavicle -3.18055e-015 3.2054e-015
lhumerus 38.3795 -25.2955 69.0129
lradius 13.5853
lwrist 2.14943
lhand -17.6224 -17.6681
lfingers 7.12502
lthumb 8.63479 12.1353
rfemur -39.7685 31.9103 -72.2242
rtibia -6.13669
rfoot -91.5846 -6.3781
rtoes 45.737
lfemur -30.3841 5.40936 44.6631
ltibia -13.9544
lfoot -49.7451 -2.58043
ltoes 54.3601
566
root 10.9991 13.242 -7.83381 224.585 0.265306 -181.003
lowerback 25.5539 1.71243 1.46213
upperback 13.4135 -0.545957 -0.633041
thorax 0.689624 -1.26315 -1.39753
lowerneck 1.60289 -1.47217 -3.5905
upperneck -24.8085 -3.73626 1.57582
head -7.81385 -2.54285 1.52584
rclavicle 1.19271e-015 -1.76421e-015
rhumerus 32.2591 10.1362 -75.0533
rradius 16.5953
rwrist 6.03995
rhand -11.0066 318.492
rfingers 7.12502
rthumb 15.0141 -430.944
lclavicle 1.19271e-015 -1.76421e-015
lhumerus 38.2566 -26.0749 68.5871
lradius 13.385
lwrist 3.17016
lhand -17.4611 -17.6818
lfingers 7.12502
lthumb 8.79035 12.1151
rfemur -39.1329 33.5675 -71.9048
rtibia -6.3506
rfoot -92.1738 -6.28121
rtoes 45.6287
lfemur -30.391 3.6572 44.5672
ltibia -13.8275
lfoot -50.3001 -3.05385
ltoes 54.4105
567
root 10.9911 13.2669 -7.88085 224.156 0.04398 -180.944
lowerback 25.2172 1.58603 1.79732
upperback 13.2227 -0.55851 -0.703561
thorax 0.636981 -1.22656 -1.66054
lowerneck 1.7173 -1.47659 -3.37182
upperneck -24.813 -3.76791 1.40729
head -7.84258 -2.55889 1.43751
rclavicle -6.95746e-015 -1.44119e-015
rhumerus 32.4573 10.18 -74.7585
rradius 16.4961
rwrist 5.92416
rhand -10.4657 318.525
rfingers 7.12502
rthumb 15.5351 -430.871
lclavicle -6.95746e-015 -1.44119e-015
lhumerus 38 -26.7056 68.291
lradius 13.2142
lwrist 3.8411
lhand -17.4616 -17.6509
lfingers 7.12502
lthumb 8.78995 12.146
rfemur -39.0291 34.7209 -71.6663
rtibia -6.33087
rfoot -92.742 -6.00975
rtoes 45.7825
lfemur -30.2432 2.61898 44.8268
ltibia -13.8338
lfoot -50.6569 -3.52481
ltoes 54.5412
